<?xml version="1.0" encoding="utf-8"?>
<!-- Generator: Adobe Illustrator 16.0.3, SVG Export Plug-In . SVG Version: 6.00 Build 0)  -->
<!DOCTYPE svg PUBLIC "-//W3C//DTD SVG 1.1//EN" "http://www.w3.org/Graphics/SVG/1.1/DTD/svg11.dtd">
<svg version="1.1" id="Ebene_1" xmlns="http://www.w3.org/2000/svg" xmlns:xlink="http://www.w3.org/1999/xlink" x="0px" y="0px"
	 width="344px" height="142px" viewBox="0 0 344 142" enable-background="new 0 0 344 142" xml:space="preserve">
<g>
	<polygon fill="#0069B3" points="191.559,80.271 225.68,80.271 225.68,75.145 199.535,75.145 199.535,74.935 225.332,36.663 
		225.332,32.941 193.779,32.941 193.779,38.067 217.496,38.067 217.496,38.277 191.559,76.689 	"/>
	<g>
		<defs>
			<rect id="SVGID_1_" x="9.667" y="10.924" width="324.667" height="120.152"/>
		</defs>
		<clipPath id="SVGID_2_">
			<use xlink:href="#SVGID_1_"  overflow="visible"/>
		</clipPath>
		<path clip-path="url(#SVGID_2_)" fill="#0069B3" d="M155.284,38.599c1.585-0.349,3.93-0.629,7.032-0.629
			c12.686,0,18.891,7.052,18.822,18.152c0,12.706-6.964,19.966-19.787,19.966c-2.345,0-4.55-0.069-6.067-0.349V38.599z
			 M149.286,80.417c3.034,0.35,6.618,0.558,10.893,0.558c9.032,0,16.202-2.373,20.546-6.771c4.344-4.33,6.688-10.612,6.688-18.291
			c0-7.609-2.414-13.056-6.551-16.896c-4.067-3.839-10.203-5.864-18.821-5.864c-4.757,0-9.1,0.419-12.754,0.978V80.417z"/>
		<path clip-path="url(#SVGID_2_)" fill="#0069B3" d="M292.98,52.742"/>
		<path clip-path="url(#SVGID_2_)" fill="#0069B3" d="M315.666,52.742"/>
	</g>
	<polygon fill="#0069B3" points="279.4,52.706 280.666,57.683 267.439,57.683 267.439,52.706 	"/>
	<g>
		<defs>
			<rect id="SVGID_3_" x="9.667" y="10.924" width="324.667" height="120.152"/>
		</defs>
		<clipPath id="SVGID_4_">
			<use xlink:href="#SVGID_3_"  overflow="visible"/>
		</clipPath>
		<path clip-path="url(#SVGID_4_)" fill="#0069B3" d="M238.678,58.02"/>
		<path clip-path="url(#SVGID_4_)" fill="#0069B3" d="M261.363,58.02"/>
	</g>
	<polygon fill="#0069B3" points="274.443,32.938 279.4,52.688 285.428,52.688 280.842,32.938 	"/>
	<polyline fill="#0069B3" points="238.758,53.299 238.73,32.94 232.695,32.94 232.695,80.271 238.73,80.271 238.73,53.156 	"/>
	<polygon fill="#0069B3" points="232.697,32.94 232.697,80.271 238.73,80.271 238.73,57.656 261.338,57.656 261.338,80.271 
		267.441,80.271 267.441,32.94 261.338,32.94 261.338,52.749 238.758,52.745 238.73,32.94 	"/>
	<g>
		<defs>
			<rect id="SVGID_5_" x="9.667" y="10.924" width="324.667" height="120.152"/>
		</defs>
		<clipPath id="SVGID_6_">
			<use xlink:href="#SVGID_5_"  overflow="visible"/>
		</clipPath>
		<path clip-path="url(#SVGID_6_)" fill="#0069B3" d="M331.533,32.938l-13.232,47.331h-2.992v-7.122h0.131
			c0,0,2.359-11.766,4.807-20.568c2.299-8.272,5.133-19.641,5.133-19.641H331.533z"/>
		<path clip-path="url(#SVGID_6_)" fill="#0069B3" d="M280.666,57.665l5.637,22.604h3.691v-7.012h-0.154c0,0-1.068-5.64-1.463-7.521
			c-0.258-1.235-1.813-8.072-1.813-8.072H280.666z"/>
		<path clip-path="url(#SVGID_6_)" fill="#0069B3" d="M303.033,32.938h-2.992c0,0-5.736,22.178-6.313,24.219
			c-2.469,8.759-3.736,16.102-3.736,16.102h-0.152v7.011h2.773c0,0,5.943-21.734,7.428-27.382
			c2.098-7.983,2.861-12.717,2.861-12.717h0.131V32.938z"/>
		<path clip-path="url(#SVGID_6_)" fill="#0069B3" d="M302.902,32.938h3.451c0,0,5.279,22.153,5.766,24.219
			c0.385,1.638,1.984,8.763,2.229,10.196c0.244,1.435,0.961,5.794,0.961,5.794h0.131v7.122h-3.473c0,0-4.01-16.85-5.613-23.532
			c-0.357-1.486-1.656-7.035-2.01-8.87c-0.523-2.72-1.311-7.696-1.311-7.696h-0.131V32.938z"/>
	</g>
	<polyline fill="#0069B3" points="261.338,53.156 261.338,80.271 267.439,80.271 267.439,32.941 261.338,32.941 261.338,53.301 	"/>
	<polygon fill="#0069B3" points="327,75.211 328.293,80.289 334.334,80.289 333.152,75.211 	"/>
	<polygon fill="#1D1D1B" points="135.302,74.031 136.975,80.604 144.792,80.604 143.263,74.031 	"/>
	<g>
		<defs>
			<rect id="SVGID_7_" x="9.667" y="10.924" width="324.667" height="120.152"/>
		</defs>
		<clipPath id="SVGID_8_">
			<use xlink:href="#SVGID_7_"  overflow="visible"/>
		</clipPath>
		<path clip-path="url(#SVGID_8_)" fill="#1D1D1B" d="M91.677,80.721h38.04v-6.765h-27.393v-0.193
			c2.128-2.421,4.065-4.746,6.001-7.361l20.906-27.215l0.098-5.315H93.612v6.862h25.361v0.194c-2.13,2.518-4.065,4.745-6.098,7.264
			L91.677,75.792V80.721z M74.346,61.066c0,1.355-0.098,2.518-0.388,3.68c-1.55,6.4-6.781,10.178-12.497,10.178
			c-9.202,0-13.852-7.845-13.852-17.337c0-10.363,5.231-18.112,14.046-18.112c6.393,0,11.043,4.456,12.302,9.88
			c0.29,1.065,0.388,2.518,0.388,3.583V61.066z M74.346,11.988v27.971h-0.194c-2.131-3.77-6.975-7.153-14.143-7.153
			c-11.43,0-21.102,9.574-21.004,25.169c0,14.238,8.703,23.812,20.035,23.812c7.653,0,13.369-3.962,15.982-9.187h0.193l0.387,8.121
			h7.639c-0.29-3.193-0.387-7.938-0.387-12.102V11.988H74.346z M24.663,80.721V40.346H35.99v-6.475H24.663v-2.52
			c0-7.17,1.839-13.565,9.101-13.565c2.421,0,4.163,0.483,5.422,1.065l1.162-6.574c-1.646-0.677-4.261-1.354-7.262-1.354
			c-3.97,0-8.23,1.256-11.421,4.349c-3.963,3.773-5.413,9.78-5.413,16.37v2.229H9.667v6.475h6.584v40.375H24.663z"/>
		<path clip-path="url(#SVGID_8_)" fill="#1D1D1B" d="M329.996,123.968c0,0.256-0.033,0.549-0.119,0.806
			c-0.326,0.958-1.164,1.541-2.09,1.541c-1.627,0-2.449-1.354-2.449-2.98c0-1.919,1.027-3.135,2.467-3.135
			c1.096,0,1.832,0.72,2.105,1.593c0.07,0.206,0.086,0.429,0.086,0.685V123.968z M330.238,119.206l-0.07,1.25h-0.033
			c-0.359-0.685-1.148-1.438-2.586-1.438c-1.902,0-3.734,1.593-3.734,4.402c0,2.295,1.473,4.043,3.527,4.043
			c1.285,0,2.176-0.618,2.639-1.389h0.033v0.925c0,2.09-1.131,2.896-2.672,2.896c-1.027,0-1.885-0.309-2.432-0.651l-0.377,1.148
			c0.668,0.444,1.764,0.685,2.758,0.685c1.045,0,2.209-0.24,3.014-0.993c0.807-0.719,1.182-1.885,1.182-3.786v-4.813
			c0-1.01,0.035-1.678,0.07-2.277H330.238z M314.77,127.496h1.506v-4.984c0-0.257,0.035-0.514,0.104-0.702
			c0.258-0.84,1.029-1.543,2.021-1.543c1.422,0,1.918,1.113,1.918,2.45v4.779h1.508v-4.949c0-2.845-1.781-3.529-2.928-3.529
			c-1.371,0-2.33,0.77-2.742,1.558h-0.033l-0.086-1.369h-1.336c0.051,0.685,0.068,1.388,0.068,2.243V127.496z M312.131,119.206
			h-1.508v5.088c0,0.273-0.051,0.548-0.137,0.77c-0.273,0.668-0.977,1.371-1.986,1.371c-1.371,0-1.85-1.063-1.85-2.639v-4.59h-1.508
			v4.848c0,2.911,1.559,3.631,2.861,3.631c1.473,0,2.346-0.874,2.74-1.541h0.033l0.086,1.353h1.336
			c-0.051-0.651-0.068-1.404-0.068-2.261V119.206z M295.551,127.496h1.506v-5.001c0-0.292,0.018-0.514,0.104-0.721
			c0.275-0.821,1.045-1.508,2.021-1.508c1.422,0,1.918,1.132,1.918,2.468v4.762h1.508v-4.934c0-2.86-1.781-3.545-2.895-3.545
			c-0.566,0-1.096,0.171-1.541,0.429c-0.463,0.256-0.84,0.634-1.08,1.061h-0.035v-5.172h-1.506V127.496z M293.393,126.057
			c-0.428,0.189-0.994,0.412-1.85,0.412c-1.645,0-2.879-1.183-2.879-3.101c0-1.73,1.027-3.134,2.93-3.134
			c0.822,0,1.387,0.187,1.746,0.393l0.344-1.164c-0.412-0.206-1.199-0.429-2.09-0.429c-2.707,0-4.453,1.851-4.453,4.401
			c0,2.535,1.627,4.231,4.127,4.231c1.113,0,1.986-0.274,2.381-0.479L293.393,126.057z M280.238,127.103
			c0.582,0.342,1.422,0.564,2.328,0.564c1.971,0,3.102-1.027,3.102-2.484c0-1.232-0.736-1.951-2.176-2.5
			c-1.08-0.411-1.576-0.719-1.576-1.403c0-0.618,0.496-1.132,1.389-1.132c0.77,0,1.369,0.273,1.695,0.479l0.377-1.096
			c-0.463-0.274-1.199-0.514-2.039-0.514c-1.781,0-2.859,1.096-2.859,2.432c0,0.994,0.701,1.816,2.191,2.347
			c1.113,0.412,1.541,0.806,1.541,1.525c0,0.685-0.512,1.232-1.609,1.232c-0.754,0-1.541-0.308-1.986-0.599L280.238,127.103z
			 M275.082,127.496h1.49v-4.419c0-0.257,0.033-0.497,0.068-0.702c0.205-1.131,0.959-1.936,2.021-1.936
			c0.205,0,0.359,0.017,0.514,0.052v-1.423c-0.137-0.034-0.258-0.051-0.428-0.051c-1.01,0-1.918,0.702-2.297,1.815h-0.068
			l-0.051-1.627h-1.318c0.051,0.771,0.068,1.609,0.068,2.586V127.496z M269.02,120.147c1.781,0,2.482,1.781,2.482,3.187
			c0,1.867-1.08,3.22-2.518,3.22c-1.473,0-2.52-1.371-2.52-3.186C266.465,121.792,267.236,120.147,269.02,120.147 M269.053,119.018
			c-2.295,0-4.111,1.628-4.111,4.402c0,2.621,1.73,4.265,3.975,4.265c2.004,0,4.127-1.335,4.127-4.403
			C273.043,120.747,271.434,119.018,269.053,119.018 M262.27,127.496v-7.143h2.004v-1.147h-2.004v-0.446
			c0-1.268,0.326-2.397,1.609-2.397c0.428,0,0.738,0.086,0.961,0.188l0.203-1.165c-0.289-0.12-0.752-0.24-1.283-0.24
			c-0.703,0-1.455,0.224-2.021,0.771c-0.701,0.669-0.959,1.729-0.959,2.896v0.394h-1.164v1.147h1.164v7.143H262.27z
			 M253.123,127.103c0.582,0.342,1.422,0.564,2.328,0.564c1.971,0,3.102-1.027,3.102-2.484c0-1.232-0.736-1.951-2.176-2.5
			c-1.078-0.411-1.576-0.719-1.576-1.403c0-0.618,0.498-1.132,1.389-1.132c0.77,0,1.371,0.273,1.695,0.479l0.377-1.096
			c-0.463-0.274-1.199-0.514-2.039-0.514c-1.781,0-2.859,1.096-2.859,2.432c0,0.994,0.701,1.816,2.191,2.347
			c1.113,0.412,1.541,0.806,1.541,1.525c0,0.685-0.514,1.232-1.609,1.232c-0.754,0-1.543-0.308-1.986-0.599L253.123,127.103z
			 M248.24,117.22v1.986h-1.285v1.147h1.285v4.522c0,0.976,0.154,1.713,0.582,2.157c0.359,0.411,0.926,0.634,1.627,0.634
			c0.584,0,1.047-0.085,1.336-0.204l-0.068-1.132c-0.186,0.052-0.479,0.104-0.873,0.104c-0.838,0-1.129-0.583-1.129-1.61v-4.471
			h2.156v-1.147h-2.156v-2.381L248.24,117.22z M244.215,127.496v-7.143h2.006v-1.147h-2.006v-0.446c0-1.268,0.326-2.397,1.611-2.397
			c0.428,0,0.736,0.086,0.959,0.188l0.205-1.165c-0.291-0.12-0.754-0.24-1.285-0.24c-0.701,0-1.455,0.224-2.02,0.771
			c-0.703,0.669-0.961,1.729-0.961,2.896v0.394h-1.164v1.147h1.164v7.143H244.215z M238.545,124.703
			c0,0.154-0.033,0.327-0.084,0.479c-0.24,0.703-0.926,1.389-2.006,1.389c-0.77,0-1.42-0.462-1.42-1.439
			c0-1.61,1.867-1.9,3.51-1.866V124.703z M240.139,127.496c-0.102-0.565-0.137-1.268-0.137-1.986v-3.102
			c0-1.661-0.617-3.391-3.152-3.391c-1.045,0-2.037,0.29-2.723,0.736l0.342,0.993c0.584-0.377,1.387-0.616,2.158-0.616
			c1.695,0,1.885,1.233,1.885,1.918v0.172c-3.203-0.018-4.984,1.079-4.984,3.083c0,1.199,0.855,2.381,2.535,2.381
			c1.182,0,2.072-0.582,2.535-1.234h0.051l0.121,1.046H240.139z M224.535,127.496h1.506v-5.001c0-0.292,0.018-0.514,0.104-0.721
			c0.273-0.821,1.045-1.508,2.02-1.508c1.422,0,1.92,1.132,1.92,2.468v4.762h1.508v-4.934c0-2.86-1.781-3.545-2.895-3.545
			c-0.566,0-1.096,0.171-1.543,0.429c-0.463,0.256-0.838,0.634-1.078,1.061h-0.035v-5.172h-1.506V127.496z M222.375,126.057
			c-0.428,0.189-0.992,0.412-1.848,0.412c-1.645,0-2.879-1.183-2.879-3.101c0-1.73,1.027-3.134,2.93-3.134
			c0.822,0,1.387,0.187,1.746,0.393l0.344-1.164c-0.412-0.206-1.199-0.429-2.09-0.429c-2.707,0-4.455,1.851-4.455,4.401
			c0,2.535,1.629,4.231,4.129,4.231c1.113,0,1.986-0.274,2.381-0.479L222.375,126.057z M209.221,127.103
			c0.582,0.342,1.422,0.564,2.33,0.564c1.969,0,3.1-1.027,3.1-2.484c0-1.232-0.736-1.951-2.176-2.5
			c-1.078-0.411-1.576-0.719-1.576-1.403c0-0.618,0.498-1.132,1.389-1.132c0.77,0,1.369,0.273,1.695,0.479l0.377-1.096
			c-0.463-0.274-1.199-0.514-2.039-0.514c-1.779,0-2.859,1.096-2.859,2.432c0,0.994,0.703,1.816,2.193,2.347
			c1.113,0.412,1.541,0.806,1.541,1.525c0,0.685-0.514,1.232-1.611,1.232c-0.754,0-1.541-0.308-1.986-0.599L209.221,127.103z
			 M200.16,127.496h1.508v-4.984c0-0.257,0.033-0.514,0.104-0.702c0.256-0.84,1.027-1.543,2.021-1.543
			c1.42,0,1.918,1.113,1.918,2.45v4.779h1.508v-4.949c0-2.845-1.783-3.529-2.93-3.529c-1.371,0-2.33,0.77-2.742,1.558h-0.033
			l-0.086-1.369h-1.336c0.053,0.685,0.068,1.388,0.068,2.243V127.496z M192.299,122.547c0.119-1.045,0.787-2.45,2.313-2.45
			c1.695,0,2.105,1.49,2.09,2.45H192.299z M198.105,123.625c0.016-0.154,0.051-0.394,0.051-0.702c0-1.524-0.719-3.905-3.426-3.905
			c-2.414,0-3.889,1.97-3.889,4.471s1.525,4.179,4.078,4.179c1.318,0,2.227-0.274,2.756-0.514l-0.256-1.079
			c-0.566,0.24-1.217,0.429-2.295,0.429c-1.508,0-2.809-0.84-2.844-2.878H198.105z M183.939,127.103
			c0.582,0.342,1.422,0.564,2.33,0.564c1.969,0,3.1-1.027,3.1-2.484c0-1.232-0.736-1.951-2.176-2.5
			c-1.078-0.411-1.576-0.719-1.576-1.403c0-0.618,0.498-1.132,1.389-1.132c0.771,0,1.369,0.273,1.695,0.479l0.377-1.096
			c-0.463-0.274-1.199-0.514-2.039-0.514c-1.781,0-2.859,1.096-2.859,2.432c0,0.994,0.701,1.816,2.191,2.347
			c1.113,0.412,1.541,0.806,1.541,1.525c0,0.685-0.512,1.232-1.607,1.232c-0.756,0-1.543-0.308-1.988-0.599L183.939,127.103z
			 M177.019,127.103c0.583,0.342,1.423,0.564,2.33,0.564c1.97,0,3.101-1.027,3.101-2.484c0-1.232-0.736-1.951-2.176-2.5
			c-1.08-0.411-1.575-0.719-1.575-1.403c0-0.618,0.495-1.132,1.388-1.132c0.771,0,1.369,0.273,1.695,0.479l0.377-1.096
			c-0.463-0.274-1.199-0.514-2.038-0.514c-1.782,0-2.862,1.096-2.862,2.432c0,0.994,0.703,1.816,2.193,2.347
			c1.113,0.412,1.542,0.806,1.542,1.525c0,0.685-0.515,1.232-1.61,1.232c-0.754,0-1.541-0.308-1.986-0.599L177.019,127.103z
			 M174.211,115.934c-0.549,0-0.943,0.411-0.943,0.942c0,0.515,0.377,0.925,0.908,0.925c0.6,0,0.977-0.41,0.959-0.925
			C175.135,116.345,174.775,115.934,174.211,115.934 M174.964,119.206h-1.507v8.29h1.507V119.206z M162.596,127.496l1.645-6.013
			c0.428-1.49,0.686-2.62,0.891-3.768h0.034c0.155,1.164,0.395,2.296,0.754,3.768l1.456,6.013h1.559l3.272-11.544h-1.525
			l-1.524,5.822c-0.359,1.439-0.685,2.724-0.925,3.991h-0.034c-0.171-1.217-0.479-2.585-0.805-3.956l-1.405-5.857h-1.559
			l-1.542,5.822c-0.394,1.491-0.754,2.861-0.942,4.01h-0.034c-0.206-1.114-0.514-2.553-0.856-3.992l-1.371-5.84h-1.576l2.929,11.544
			H162.596z M151.805,124.019c0,0.24-0.017,0.445-0.069,0.651c-0.274,1.131-1.199,1.799-2.209,1.799c-1.627,0-2.45-1.387-2.45-3.066
			c0-1.833,0.925-3.203,2.484-3.203c1.131,0,1.953,0.788,2.175,1.747c0.052,0.188,0.069,0.446,0.069,0.634V124.019z
			 M151.805,115.335v4.95h-0.035c-0.376-0.668-1.233-1.268-2.5-1.268c-2.021,0-3.734,1.696-3.717,4.453
			c0,2.519,1.541,4.214,3.545,4.214c1.354,0,2.364-0.702,2.827-1.628h0.034l0.068,1.439h1.353c-0.051-0.565-0.068-1.404-0.068-2.141
			v-10.021H151.805z M136.509,127.496h1.507v-4.984c0-0.257,0.035-0.514,0.103-0.702c0.257-0.84,1.027-1.543,2.021-1.543
			c1.421,0,1.917,1.113,1.917,2.45v4.779h1.507v-4.949c0-2.845-1.781-3.529-2.929-3.529c-1.37,0-2.33,0.77-2.74,1.558h-0.035
			l-0.085-1.369h-1.336c0.052,0.685,0.068,1.388,0.068,2.243V127.496z M133.871,119.206h-1.507v5.088
			c0,0.273-0.051,0.548-0.137,0.77c-0.274,0.668-0.977,1.371-1.987,1.371c-1.371,0-1.85-1.063-1.85-2.639v-4.59h-1.507v4.848
			c0,2.911,1.559,3.631,2.86,3.631c1.473,0,2.347-0.874,2.741-1.541h0.034l0.085,1.353h1.336c-0.051-0.651-0.069-1.404-0.069-2.261
			V119.206z M117.034,123.42h4.23v-1.113h-4.23V123.42z M113.591,127.496h1.507v-12.161h-1.507V127.496z M110.953,119.206h-1.508
			v5.088c0,0.273-0.05,0.548-0.137,0.77c-0.273,0.668-0.977,1.371-1.987,1.371c-1.37,0-1.85-1.063-1.85-2.639v-4.59h-1.507v4.848
			c0,2.911,1.558,3.631,2.86,3.631c1.473,0,2.347-0.874,2.741-1.541h0.034l0.086,1.353h1.336c-0.052-0.651-0.069-1.404-0.069-2.261
			V119.206z M94.373,127.496h1.507v-5.001c0-0.292,0.017-0.514,0.103-0.721c0.274-0.821,1.045-1.508,2.021-1.508
			c1.422,0,1.919,1.132,1.919,2.468v4.762h1.507v-4.934c0-2.86-1.781-3.545-2.895-3.545c-0.565,0-1.096,0.171-1.542,0.429
			c-0.463,0.256-0.839,0.634-1.079,1.061H95.88v-5.172h-1.507V127.496z M92.214,126.057c-0.428,0.189-0.994,0.412-1.85,0.412
			c-1.645,0-2.878-1.183-2.878-3.101c0-1.73,1.028-3.134,2.929-3.134c0.822,0,1.388,0.187,1.747,0.393l0.343-1.164
			c-0.411-0.206-1.199-0.429-2.09-0.429c-2.707,0-4.454,1.851-4.454,4.401c0,2.535,1.627,4.231,4.128,4.231
			c1.113,0,1.987-0.274,2.381-0.479L92.214,126.057z M79.059,127.103c0.582,0.342,1.421,0.564,2.329,0.564
			c1.97,0,3.101-1.027,3.101-2.484c0-1.232-0.736-1.951-2.175-2.5c-1.08-0.411-1.576-0.719-1.576-1.403
			c0-0.618,0.496-1.132,1.387-1.132c0.771,0,1.37,0.273,1.696,0.479l0.377-1.096c-0.463-0.274-1.199-0.514-2.039-0.514
			c-1.781,0-2.86,1.096-2.86,2.432c0,0.994,0.702,1.816,2.192,2.347c1.113,0.412,1.542,0.806,1.542,1.525
			c0,0.685-0.514,1.232-1.61,1.232c-0.753,0-1.542-0.308-1.986-0.599L79.059,127.103z M69.998,127.496h1.507v-5.001
			c0-0.292,0.017-0.514,0.103-0.721c0.274-0.821,1.044-1.508,2.021-1.508c1.421,0,1.918,1.132,1.918,2.468v4.762h1.507v-4.934
			c0-2.86-1.781-3.545-2.895-3.545c-0.565,0-1.097,0.171-1.542,0.429c-0.463,0.256-0.84,0.634-1.08,1.061h-0.034v-5.172h-1.507
			V127.496z M67.839,126.057c-0.428,0.189-0.993,0.412-1.85,0.412c-1.645,0-2.878-1.183-2.878-3.101c0-1.73,1.028-3.134,2.93-3.134
			c0.822,0,1.388,0.187,1.747,0.393l0.343-1.164c-0.411-0.206-1.199-0.429-2.089-0.429c-2.707,0-4.454,1.851-4.454,4.401
			c0,2.535,1.627,4.231,4.129,4.231c1.113,0,1.987-0.274,2.381-0.479L67.839,126.057z M56.124,120.147
			c1.781,0,2.483,1.781,2.483,3.187c0,1.867-1.079,3.22-2.518,3.22c-1.473,0-2.518-1.371-2.518-3.186
			C53.571,121.792,54.342,120.147,56.124,120.147 M56.157,119.018c-2.295,0-4.111,1.628-4.111,4.402c0,2.621,1.73,4.265,3.974,4.265
			c2.004,0,4.128-1.335,4.128-4.403C60.148,120.747,58.539,119.018,56.157,119.018 M41.393,115.952v11.544h1.49v-5.413h5.584v5.413
			h1.507v-11.544h-1.507v4.829h-5.584v-4.829H41.393z M31.835,127.496h1.49v-4.419c0-0.257,0.034-0.497,0.068-0.702
			c0.206-1.131,0.959-1.936,2.021-1.936c0.206,0,0.36,0.017,0.514,0.052v-1.423c-0.137-0.034-0.257-0.051-0.428-0.051
			c-1.01,0-1.918,0.702-2.295,1.815h-0.069l-0.051-1.627h-1.319c0.052,0.771,0.069,1.609,0.069,2.586V127.496z M27.364,117.731
			c0.497,0,0.839-0.409,0.839-0.873c0-0.496-0.359-0.874-0.839-0.874s-0.856,0.395-0.856,0.874
			C26.508,117.322,26.85,117.731,27.364,117.731 M24.195,117.731c0.497,0,0.839-0.409,0.839-0.873c0-0.496-0.36-0.874-0.839-0.874
			c-0.479,0-0.874,0.395-0.874,0.874C23.322,117.322,23.681,117.731,24.195,117.731 M29.197,119.206H27.69v5.088
			c0,0.273-0.051,0.548-0.137,0.77c-0.274,0.668-0.977,1.371-1.987,1.371c-1.371,0-1.85-1.063-1.85-2.639v-4.59h-1.508v4.848
			c0,2.911,1.559,3.631,2.86,3.631c1.474,0,2.347-0.874,2.741-1.541h0.034l0.086,1.353h1.336c-0.051-0.651-0.068-1.404-0.068-2.261
			V119.206z M18.765,127.496v-7.143h2.004v-1.147h-2.004v-0.446c0-1.268,0.326-2.397,1.611-2.397c0.428,0,0.736,0.086,0.959,0.188
			l0.205-1.165c-0.291-0.12-0.753-0.24-1.284-0.24c-0.702,0-1.456,0.224-2.021,0.771c-0.703,0.669-0.959,1.729-0.959,2.896v0.394
			H16.11v1.147h1.165v7.143H18.765z"/>
		<path clip-path="url(#SVGID_8_)" fill="#1D1D1B" d="M190.242,109.415h1.473v-5.001c0-0.257,0.035-0.514,0.121-0.736
			c0.24-0.754,0.924-1.508,1.867-1.508c1.148,0,1.73,0.96,1.73,2.277v4.968h1.473v-5.12c0-0.275,0.051-0.549,0.119-0.755
			c0.258-0.736,0.926-1.37,1.781-1.37c1.217,0,1.799,0.96,1.799,2.552v4.693h1.473v-4.881c0-2.878-1.627-3.598-2.723-3.598
			c-0.787,0-1.336,0.206-1.834,0.583c-0.342,0.257-0.668,0.616-0.924,1.078h-0.035c-0.359-0.976-1.215-1.661-2.346-1.661
			c-1.369,0-2.141,0.736-2.604,1.524h-0.053l-0.068-1.335h-1.318c0.051,0.685,0.068,1.387,0.068,2.243V109.415z M187.572,101.126
			h-1.508v5.087c0,0.273-0.053,0.548-0.137,0.77c-0.275,0.669-0.977,1.371-1.988,1.371c-1.369,0-1.85-1.063-1.85-2.639v-4.589
			h-1.508v4.847c0,2.911,1.561,3.631,2.861,3.631c1.473,0,2.348-0.873,2.74-1.541h0.035l0.086,1.353h1.336
			c-0.053-0.651-0.068-1.404-0.068-2.26V101.126z M174.861,109.415h1.491v-4.419c0-0.257,0.033-0.497,0.067-0.701
			c0.205-1.132,0.959-1.937,2.021-1.937c0.205,0,0.359,0.017,0.514,0.052v-1.422c-0.137-0.035-0.256-0.052-0.428-0.052
			c-1.01,0-1.918,0.702-2.295,1.815h-0.068l-0.053-1.626h-1.318c0.053,0.77,0.068,1.609,0.068,2.586V109.415z M169.364,99.139v1.987
			h-1.285v1.146h1.285v4.522c0,0.976,0.154,1.713,0.582,2.158c0.36,0.411,0.925,0.634,1.627,0.634c0.582,0,1.044-0.086,1.336-0.205
			l-0.068-1.132c-0.188,0.052-0.479,0.104-0.874,0.104c-0.839,0-1.131-0.583-1.131-1.61v-4.471h2.159v-1.146h-2.159v-2.382
			L169.364,99.139z M159.412,109.415h1.507v-4.984c0-0.257,0.034-0.514,0.103-0.702c0.257-0.839,1.028-1.542,2.021-1.542
			c1.422,0,1.918,1.113,1.918,2.45v4.778h1.507v-4.949c0-2.844-1.781-3.529-2.929-3.529c-1.37,0-2.33,0.771-2.74,1.56h-0.035
			l-0.085-1.37h-1.336c0.052,0.685,0.069,1.387,0.069,2.243V109.415z M151.515,104.466c0.12-1.045,0.788-2.45,2.313-2.45
			c1.695,0,2.106,1.491,2.089,2.45H151.515z M157.321,105.544c0.018-0.154,0.052-0.394,0.052-0.702c0-1.524-0.719-3.905-3.426-3.905
			c-2.416,0-3.888,1.97-3.888,4.472c0,2.5,1.524,4.179,4.077,4.179c1.319,0,2.227-0.273,2.758-0.514l-0.257-1.079
			c-0.565,0.239-1.217,0.429-2.295,0.429c-1.507,0-2.81-0.841-2.844-2.879H157.321z M142.334,109.415h6.732v-1.199h-4.848v-0.033
			c0.376-0.429,0.72-0.841,1.062-1.302l3.7-4.814l0.017-0.94h-6.32v1.216h4.488v0.033c-0.377,0.445-0.72,0.84-1.08,1.286
			l-3.751,4.881V109.415z M133.598,109.415h1.507v-4.984c0-0.257,0.034-0.514,0.103-0.702c0.257-0.839,1.028-1.542,2.021-1.542
			c1.421,0,1.918,1.113,1.918,2.45v4.778h1.508v-4.949c0-2.844-1.781-3.529-2.929-3.529c-1.371,0-2.33,0.771-2.741,1.56h-0.034
			l-0.086-1.37h-1.336c0.051,0.685,0.069,1.387,0.069,2.243V109.415z M125.701,104.466c0.12-1.045,0.788-2.45,2.313-2.45
			c1.696,0,2.107,1.491,2.09,2.45H125.701z M131.508,105.544c0.017-0.154,0.051-0.394,0.051-0.702c0-1.524-0.72-3.905-3.426-3.905
			c-2.415,0-3.888,1.97-3.888,4.472c0,2.5,1.524,4.179,4.076,4.179c1.319,0,2.227-0.273,2.758-0.514l-0.257-1.079
			c-0.566,0.239-1.216,0.429-2.295,0.429c-1.507,0-2.809-0.841-2.844-2.879H131.508z M119.449,99.139v1.987h-1.285v1.146h1.285
			v4.522c0,0.976,0.154,1.713,0.582,2.158c0.36,0.411,0.925,0.634,1.627,0.634c0.583,0,1.045-0.086,1.336-0.205l-0.068-1.132
			c-0.188,0.052-0.479,0.104-0.874,0.104c-0.839,0-1.13-0.583-1.13-1.61v-4.471h2.158v-1.146h-2.158v-2.382L119.449,99.139z
			 M115.115,106.623c0,0.155-0.034,0.326-0.085,0.479c-0.239,0.703-0.925,1.388-2.004,1.388c-0.771,0-1.422-0.462-1.422-1.438
			c0-1.611,1.867-1.901,3.511-1.867V106.623z M116.708,109.415c-0.103-0.565-0.137-1.267-0.137-1.986v-3.102
			c0-1.66-0.617-3.391-3.152-3.391c-1.045,0-2.038,0.292-2.724,0.736l0.343,0.994c0.582-0.377,1.387-0.617,2.158-0.617
			c1.696,0,1.884,1.233,1.884,1.918v0.173c-3.203-0.019-4.985,1.078-4.985,3.082c0,1.2,0.856,2.381,2.535,2.381
			c1.182,0,2.073-0.582,2.535-1.233h0.051l0.121,1.045H116.708z M106.568,105.938c0,0.239-0.018,0.445-0.068,0.65
			c-0.274,1.131-1.199,1.799-2.21,1.799c-1.626,0-2.449-1.387-2.449-3.066c0-1.833,0.925-3.203,2.484-3.203
			c1.13,0,1.952,0.788,2.175,1.747c0.051,0.188,0.068,0.446,0.068,0.634V105.938z M106.568,97.254v4.95h-0.035
			c-0.377-0.668-1.233-1.268-2.5-1.268c-2.021,0-3.734,1.696-3.717,4.453c0,2.519,1.542,4.214,3.545,4.214
			c1.353,0,2.364-0.701,2.826-1.628h0.034l0.068,1.439h1.354c-0.051-0.565-0.068-1.404-0.068-2.141V97.254H106.568z M93.379,109.021
			c0.582,0.343,1.422,0.565,2.329,0.565c1.97,0,3.101-1.028,3.101-2.484c0-1.233-0.737-1.952-2.176-2.501
			c-1.079-0.41-1.576-0.719-1.576-1.403c0-0.618,0.497-1.132,1.387-1.132c0.771,0,1.371,0.275,1.696,0.48l0.377-1.096
			c-0.462-0.274-1.199-0.515-2.038-0.515c-1.782,0-2.861,1.097-2.861,2.433c0,0.993,0.702,1.815,2.192,2.346
			c1.113,0.412,1.542,0.807,1.542,1.525c0,0.685-0.515,1.233-1.61,1.233c-0.754,0-1.542-0.309-1.987-0.6L93.379,109.021z
			 M89.8,105.888c0,0.257-0.034,0.548-0.12,0.805c-0.325,0.959-1.165,1.541-2.089,1.541c-1.627,0-2.45-1.353-2.45-2.979
			c0-1.92,1.028-3.136,2.467-3.136c1.096,0,1.833,0.72,2.106,1.594c0.069,0.205,0.086,0.429,0.086,0.686V105.888z M90.04,101.126
			l-0.068,1.249h-0.034c-0.36-0.685-1.148-1.438-2.586-1.438c-1.901,0-3.735,1.593-3.735,4.402c0,2.296,1.474,4.043,3.529,4.043
			c1.285,0,2.175-0.618,2.638-1.388h0.034v0.925c0,2.09-1.131,2.895-2.672,2.895c-1.027,0-1.884-0.309-2.432-0.65l-0.376,1.147
			c0.667,0.445,1.764,0.685,2.757,0.685c1.045,0,2.21-0.239,3.015-0.993c0.806-0.719,1.182-1.885,1.182-3.786v-4.813
			c0-1.01,0.034-1.679,0.069-2.277H90.04z M74.538,109.415h1.507v-4.984c0-0.257,0.034-0.514,0.103-0.702
			c0.256-0.839,1.028-1.542,2.021-1.542c1.421,0,1.918,1.113,1.918,2.45v4.778h1.508v-4.949c0-2.844-1.782-3.529-2.929-3.529
			c-1.37,0-2.33,0.771-2.741,1.56h-0.034l-0.086-1.37h-1.336c0.052,0.685,0.069,1.387,0.069,2.243V109.415z M71.866,101.126h-1.508
			v5.087c0,0.273-0.051,0.548-0.137,0.77c-0.274,0.669-0.976,1.371-1.987,1.371c-1.371,0-1.85-1.063-1.85-2.639v-4.589h-1.507v4.847
			c0,2.911,1.559,3.631,2.861,3.631c1.473,0,2.347-0.873,2.741-1.541h0.034l0.086,1.353h1.335c-0.051-0.651-0.068-1.404-0.068-2.26
			V101.126z M55.25,109.415h1.508v-5.001c0-0.292,0.017-0.514,0.102-0.721c0.274-0.82,1.045-1.507,2.021-1.507
			c1.422,0,1.919,1.131,1.919,2.467v4.762h1.507v-4.933c0-2.86-1.782-3.546-2.895-3.546c-0.565,0-1.097,0.171-1.542,0.429
			c-0.463,0.257-0.839,0.634-1.08,1.061h-0.034v-5.172H55.25V109.415z M53.058,107.976c-0.428,0.189-0.993,0.412-1.85,0.412
			c-1.645,0-2.878-1.182-2.878-3.101c0-1.729,1.028-3.134,2.929-3.134c0.822,0,1.388,0.188,1.747,0.394l0.343-1.165
			c-0.411-0.205-1.199-0.429-2.09-0.429c-2.706,0-4.453,1.851-4.453,4.402c0,2.535,1.627,4.231,4.128,4.231
			c1.113,0,1.987-0.273,2.381-0.479L53.058,107.976z M39.869,109.021c0.582,0.343,1.422,0.565,2.329,0.565
			c1.97,0,3.101-1.028,3.101-2.484c0-1.233-0.736-1.952-2.176-2.501c-1.079-0.41-1.576-0.719-1.576-1.403
			c0-0.618,0.497-1.132,1.387-1.132c0.771,0,1.371,0.275,1.696,0.48l0.377-1.096c-0.462-0.274-1.199-0.515-2.039-0.515
			c-1.781,0-2.86,1.097-2.86,2.433c0,0.993,0.702,1.815,2.192,2.346c1.113,0.412,1.542,0.807,1.542,1.525
			c0,0.685-0.514,1.233-1.61,1.233c-0.754,0-1.542-0.309-1.987-0.6L39.869,109.021z M34.679,109.415h1.49v-4.419
			c0-0.257,0.034-0.497,0.069-0.701c0.205-1.132,0.958-1.937,2.021-1.937c0.205,0,0.359,0.017,0.514,0.052v-1.422
			c-0.138-0.035-0.257-0.052-0.429-0.052c-1.01,0-1.918,0.702-2.295,1.815H35.98l-0.052-1.626H34.61
			c0.051,0.77,0.068,1.609,0.068,2.586V109.415z M28.581,102.066c1.781,0,2.484,1.782,2.484,3.188c0,1.866-1.08,3.22-2.518,3.22
			c-1.473,0-2.518-1.371-2.518-3.187C26.028,103.712,26.799,102.066,28.581,102.066 M28.615,100.937
			c-2.295,0-4.111,1.628-4.111,4.402c0,2.621,1.73,4.265,3.974,4.265c2.004,0,4.128-1.335,4.128-4.402
			C32.605,102.667,30.996,100.937,28.615,100.937 M17.173,109.415h1.49v-5.224h4.368v-1.233h-4.368v-3.837h4.728v-1.25h-6.218
			V109.415z"/>
	</g>
</g>
<g>
</g>
<g>
</g>
<g>
</g>
<g>
</g>
<g>
</g>
<g>
</g>
<g>
</g>
<g>
</g>
<g>
</g>
<g>
</g>
<g>
</g>
<g>
</g>
<g>
</g>
<g>
</g>
<g>
</g>
</svg>
